<?xml version="1.0" encoding="UTF-8"?>
<!DOCTYPE svg PUBLIC "-//W3C//DTD SVG 1.1//EN" "http://www.w3.org/Graphics/SVG/1.1/DTD/svg11.dtd">
<!-- Creator: CorelDRAW 2019 (64-Bit) -->
<svg xmlns="http://www.w3.org/2000/svg" xml:space="preserve" width="287.103mm" height="143.794mm" version="1.1" style="shape-rendering:geometricPrecision; text-rendering:geometricPrecision; image-rendering:optimizeQuality; fill-rule:evenodd; clip-rule:evenodd"
viewBox="0 0 5821.31 2915.57"
 xmlns:xlink="http://www.w3.org/1999/xlink"
 xmlns:xodm="http://www.corel.com/coreldraw/odm/2003">
 <defs>
  <style type="text/css">
   <![CDATA[
    .fil0 {fill:black}
   ]]>
  </style>
 </defs>
 <g id="Слой_x0020_1">
  <metadata id="CorelCorpID_0Corel-Layer"/>
  <path class="fil0" d="M5663.98 2815.45c7.15,50.06 0,14.3 -14.3,28.61 7.15,-28.61 0,-14.3 14.3,-28.61zm-5449.43 -171.63c0,35.76 7.15,7.15 -7.15,21.45 0,-28.61 -7.15,-7.15 7.15,-21.45zm-164.49 35.76c-14.3,14.3 21.46,7.15 -14.3,7.15l-7.15 -78.67c0,-28.61 -7.15,-14.3 7.15,-21.46 21.46,0 7.15,0 21.46,7.15 14.3,28.61 0,42.91 -7.15,85.82zm5556.71 -100.12c35.76,35.76 0,143.03 -7.15,150.18 -7.15,50.06 35.76,64.36 7.15,100.12 -14.3,21.46 21.45,14.3 -28.61,14.3 -14.3,-14.3 0,7.15 -7.15,-14.3 -14.3,-57.21 7.15,-85.82 7.15,-85.82 -28.61,-28.61 -42.91,-28.61 -28.61,-64.36 14.3,7.15 7.15,0 14.3,14.3l7.15 14.3c0,-42.91 -7.15,-57.21 21.45,-78.67 -21.45,-21.45 -21.45,-28.61 -14.3,-57.21l7.15 -7.15c0,-7.15 7.15,-14.3 7.15,-21.45l14.3 35.76zm-5513.8 -7.15c0,-7.15 -14.3,7.15 0,-21.45 21.45,7.15 21.45,-7.15 14.3,28.61l-14.3 -7.15zm5556.71 -28.61c14.3,21.45 0,21.45 0,21.45 -7.15,-7.15 0,7.15 -7.15,-14.3 0,-28.61 0,7.15 7.15,-7.15zm-5585.31 -7.15c7.15,7.15 0,0 7.15,14.3 7.15,21.45 0,7.15 -7.15,21.45l-14.3 -14.3c-14.3,-21.45 -14.3,-7.15 -14.3,-35.76 28.61,7.15 14.3,0 28.61,14.3zm5585.31 -50.06c21.45,28.61 0,28.61 0,28.61 0,0 -7.15,0 -7.15,-14.3 0,-28.61 0,-7.15 7.15,-14.3zm107.27 -57.21l14.3 -50.06c28.61,-7.15 7.15,-7.15 14.3,7.15 7.15,50.06 14.3,57.21 7.15,114.42l-35.76 -14.3 0 -57.21zm-5692.58 0l-14.3 50.06c-28.61,7.15 -7.15,7.15 -14.3,-7.15 -7.15,-50.06 -14.3,-57.21 -7.15,-114.42l35.76 14.3 0 57.21zm114.42 -71.52c0,28.61 0,7.15 -7.15,14.3 -21.45,-21.46 -7.15,-14.3 0,-28.61 0,0 7.15,0 7.15,14.3zm5592.46 -57.21c14.3,21.45 14.3,7.15 14.3,35.76 -28.61,-7.15 -14.3,0 -28.61,-14.3 -7.15,-7.15 0,0 -7.15,-14.3 -7.15,-21.45 0,-7.15 7.15,-21.45l14.3 14.3zm-5599.62 -7.15c21.46,28.61 0,21.45 0,21.45 -14.3,-14.3 0,-21.45 0,-21.45zm5556.71 -7.15c0,7.15 14.3,-7.15 0,21.45 -21.45,-7.15 -21.45,7.15 -14.3,-28.61l14.3 7.15zm42.91 -107.27c14.3,-14.3 -21.46,-7.15 14.3,-7.15 7.15,21.45 7.15,21.45 7.15,50.06 7.15,57.21 0,42.91 -7.15,50.06 -21.46,0 -7.15,0 -21.46,-7.15 -14.3,-28.61 0,-42.91 7.15,-85.82zm-157.33 14.3c0,28.61 7.15,7.15 -7.15,21.45 0,-28.61 -7.15,-7.15 7.15,-21.45zm-5399.37 85.82c-14.3,-14.3 -14.3,-42.91 -14.3,-78.67 0,-35.76 14.3,-28.61 21.45,-71.51 7.15,-42.91 0,-21.46 -7.15,-50.06 -14.3,-35.76 -7.15,-14.3 0,-42.91 7.15,-42.91 -21.45,-14.3 35.76,-71.52 0,57.21 7.15,114.42 0,143.03 -7.15,14.3 -7.15,0 -7.15,7.15l28.61 28.61c7.15,14.3 7.15,21.45 0,35.76 -14.3,-7.15 -7.15,-7.15 -21.45,-28.61 0,42.91 7.15,57.21 -21.45,78.67 21.45,21.46 21.45,28.61 14.3,57.21l-7.15 7.15c0,7.15 -7.15,14.3 -7.15,21.45 -7.15,-7.15 -7.15,0 -14.3,-14.3 0,-7.15 0,-14.3 0,-21.45zm-50.06 -250.3c0,28.61 0,7.15 -7.15,14.3 0,-14.3 0,-7.15 0,-21.45 0,-14.3 0,-7.15 7.15,-14.3 0,14.3 7.15,7.15 0,21.45zm-7.15 -100.12l7.15 -21.45c0,7.15 7.15,-7.15 0,21.45l-7.15 35.76c-7.15,-7.15 -7.15,0 -7.15,-21.45 0,-7.15 0,-7.15 7.15,-14.3zm5599.61 -28.61c-14.3,14.3 14.3,14.3 -21.45,14.3 -7.15,-14.3 -7.15,-7.15 -7.15,-28.61 7.15,-21.46 0,0 14.3,-14.3l7.15 -14.3c21.46,0 21.46,0 28.61,21.46 -14.3,28.61 0,0 -21.46,21.45zm-5549.55 -14.3c21.45,7.15 21.45,0 21.45,21.45l0 50.06c-14.3,14.3 21.45,21.45 -14.3,7.15l-14.3 42.91c-21.45,-21.46 0,0 -7.15,-21.46l-7.15 -35.76 7.15 -7.15c7.15,-21.45 7.15,-7.15 7.15,-28.61l-14.3 -7.15 0 -35.76 21.45 -21.45 0 35.76zm42.91 14.3c-7.15,-57.21 0,-35.76 14.3,-42.91 7.15,7.15 7.15,-7.15 7.15,14.3 0,42.91 0,7.15 -7.15,14.3l-14.3 14.3zm-92.97 -57.21c-14.3,-14.3 -14.3,-7.15 0,-28.61 14.3,14.3 14.3,7.15 0,28.61zm71.52 -50.06c7.15,42.91 7.15,28.61 -7.15,42.91 -7.15,-7.15 -14.3,7.15 -7.15,-35.76l-7.15 -50.06c28.61,7.15 21.45,7.15 21.45,42.91zm5370.77 -522.06c-14.3,-35.76 -7.15,-7.15 0,-21.46l0 21.46zm7.15 -78.67c7.15,7.15 14.3,7.15 0,21.45 -21.45,-21.45 0,-14.3 0,-21.45zm164.49 -143.03l14.3 -14.3c7.15,14.3 7.15,7.15 7.15,21.45l-7.15 7.15c-14.3,7.15 7.15,7.15 -21.46,7.15l7.15 -21.45zm-5485.19 -21.45c-7.15,-35.76 0,-7.15 7.15,-14.3l0 28.61c-7.15,-7.15 -7.15,0 -7.15,-14.3zm-121.58 14.3c-7.15,-7.15 -7.15,14.3 -14.3,-35.76 0,-50.06 -7.15,-78.67 21.45,-107.27l-7.15 143.03zm5592.46 -143.03c-14.3,14.3 14.3,14.3 -21.45,14.3 -7.15,-14.3 -7.15,-7.15 -7.15,-28.61 7.15,-21.45 0,0 14.3,-14.3l7.15 -14.3c21.46,0 21.46,0 28.61,21.45 -14.3,28.61 0,0 -21.46,21.45zm-5463.74 -57.21c0,28.61 0,7.15 -7.15,14.3 -21.45,-21.45 0,-28.61 0,-28.61 7.15,7.15 7.15,0 7.15,14.3zm-64.36 -50.06l0 7.15c7.15,14.3 14.3,-14.3 14.3,35.76 0,0 0,0 0,0 7.15,-7.15 -14.3,-21.45 14.3,-7.15 14.3,7.15 7.15,21.45 7.15,21.45 0,0 0,7.15 0,7.15l7.15 7.15 0 42.91c-14.3,21.45 28.61,21.45 -14.3,21.45 14.3,28.61 28.61,71.51 14.3,107.27 -14.3,42.91 28.61,-7.15 -7.15,7.15l-35.76 7.15c-14.3,-14.3 -7.15,14.3 -14.3,-21.45 0,0 0,-7.15 -7.15,-14.3 0,0 0,0 0,-7.15 0,0 -7.15,0 -7.15,0 -7.15,-14.3 0,-7.15 -7.15,-21.45l-7.15 -35.76 14.3 -35.76 -7.15 -7.15 -7.15 -28.61c0,0 7.15,-14.3 7.15,-14.3 7.15,-14.3 0,0 7.15,-14.3 0,-21.45 -7.15,-7.15 0,-21.45 0,-7.15 7.15,-14.3 7.15,-14.3 0,-7.15 7.15,-7.15 7.15,-7.15l0 -7.15 -7.15 -50.06c28.61,7.15 21.45,7.15 21.45,42.91zm5327.86 -171.64c0,28.61 0,7.15 -7.15,14.3 -7.15,-7.15 -7.15,7.15 -7.15,-14.3 0,-21.45 0,-7.15 7.15,-14.3 7.15,7.15 7.15,0 7.15,14.3zm200.24 0c0,-7.15 -14.3,0 -14.3,-21.45 0,-28.61 14.3,-21.45 14.3,-21.45 21.46,14.3 14.3,28.61 0,42.91zm-7.15 -107.27c14.3,-7.15 -14.3,-7.15 14.3,-7.15l7.15 14.3 -7.15 14.3c-21.45,-7.15 -7.15,7.15 -14.3,-21.45zm-64.36 -221.7c-14.3,-7.15 -14.3,0 -21.45,-21.45 21.45,7.15 14.3,-7.15 21.45,21.45zm21.45 -107.27c-14.3,-14.3 -21.45,-21.46 -7.15,-50.06 14.3,14.3 21.45,28.61 7.15,50.06zm57.21 -78.67l7.15 14.3 -14.3 7.15c-7.15,-7.15 -7.15,14.3 -7.15,-21.45 28.61,-14.3 7.15,0 14.3,0zm-5635.37 150.18c14.3,14.3 7.15,35.76 7.15,57.21l-35.76 -7.15c-7.15,28.61 14.3,35.76 28.61,50.06 28.61,21.45 14.3,21.45 21.45,35.76 -14.3,0 -7.15,0 -21.45,0l-14.3 0c-7.15,35.76 7.15,21.45 21.45,50.06 14.3,14.3 21.45,50.06 21.45,64.36 7.15,50.06 21.46,135.88 -7.15,171.64l-14.3 21.45 14.3 7.15c-7.15,71.51 -7.15,7.15 7.15,57.21 14.3,35.76 -7.15,21.46 -14.3,42.91 28.61,14.3 21.45,0 21.45,28.61 -21.45,14.3 -35.76,7.15 -57.21,7.15 7.15,42.91 0,28.61 14.3,57.21 14.3,28.61 7.15,35.76 7.15,71.52 0,21.45 0,35.76 7.15,57.21 0,14.3 0,14.3 0,28.61 0,21.45 -7.15,21.45 -7.15,21.45 0,71.52 -21.45,121.58 -7.15,178.79 7.15,7.15 0,-14.3 7.15,21.46 7.15,7.15 0,14.3 0,21.45 -7.15,7.15 14.3,7.15 -21.45,7.15 -21.45,14.3 14.3,42.91 21.45,42.91 14.3,14.3 7.15,-14.3 21.45,28.61 0,7.15 0,14.3 0,21.46l-35.76 0c-7.15,14.3 0,7.15 7.15,28.61 7.15,14.3 7.15,21.45 7.15,42.91l7.15 42.91c14.3,-35.76 -7.15,-28.61 14.3,-57.21 7.15,35.76 14.3,78.67 14.3,114.42 0,78.67 -14.3,57.21 -7.15,71.52l0 28.61 -21.45 21.45c35.76,35.76 14.3,28.61 7.15,35.76 14.3,21.45 28.61,28.61 14.3,57.21l-14.3 -28.61 -7.15 7.15 0 64.36c-14.3,14.3 -14.3,7.15 -28.61,14.3 0,128.73 14.3,50.06 21.45,128.73l0 64.36 -21.45 0c-14.3,42.91 14.3,121.58 -7.15,171.63l-35.76 14.3c-14.3,28.61 -14.3,21.46 -14.3,57.21 0,64.36 -14.3,42.91 -21.45,50.06l-7.15 -35.76c-7.15,7.15 -7.15,-14.3 -7.15,28.61 0,7.15 0,21.45 0,28.61 7.15,57.21 -7.15,50.06 -7.15,57.21 -7.15,107.27 0,221.7 14.3,321.82l28.61 35.76 0 42.91c-14.3,14.3 14.3,0 -14.3,14.3 -7.15,-14.3 -7.15,-14.3 0,-28.61l0 -14.3c0,0 -14.3,7.15 -14.3,7.15l-14.3 28.61 7.15 28.61 0 71.52 5799.86 0 0 -71.52 -114.42 0c-7.15,-7.15 -14.3,14.3 -7.15,-14.3l21.45 -7.15c14.3,-35.76 -14.3,-128.73 7.15,-171.63 0,0 0,0 0,0l21.45 -14.3c0,0 14.3,0 14.3,0 28.61,-50.06 -7.15,-71.52 28.61,-107.27 14.3,14.3 14.3,7.15 14.3,35.76 7.15,-7.15 7.15,14.3 7.15,-28.61 0,-7.15 0,-21.45 0,-28.61 -7.15,-57.21 7.15,-50.06 7.15,-57.21 7.15,-107.27 0,-221.7 -14.3,-321.82 0,-7.15 0,-7.15 -7.15,-7.15 0,0 0,-7.15 0,-7.15l-21.45 -21.45 0 -42.91c14.3,-14.3 -14.3,0 14.3,-14.3 7.15,14.3 7.15,14.3 0,28.61l0 14.3c0,0 14.3,-7.15 14.3,-7.15 14.3,-50.06 14.3,-14.3 7.15,-71.51 0,-28.61 0,-64.36 0,-92.97 0,-64.36 7.15,-121.58 7.15,-185.94 0,0 0,0 0,0 0,-7.15 -7.15,-7.15 -7.15,-7.15 0,0 -7.15,-7.15 -7.15,-7.15 0,7.15 0,21.45 0,28.61 0,28.61 0,14.3 -7.15,21.46 -21.45,-35.76 0,-42.91 0,-85.82l0 -35.76c0,-14.3 0,-14.3 7.15,-28.61 14.3,-21.45 7.15,-7.15 14.3,-14.3 0,-42.91 0,-85.82 0,-121.58 0,-42.91 7.15,-71.51 7.15,-114.42l-21.45 -221.7c-7.15,-71.51 14.3,-71.51 14.3,-107.27l-7.15 -236c0,-57.21 -21.45,-14.3 -21.45,-100.12 7.15,-21.45 7.15,-42.91 7.15,-64.36 7.15,-7.15 7.15,-14.3 7.15,-21.45 7.15,-35.76 0,-7.15 14.3,-21.45 -7.15,-28.61 -14.3,-100.12 -7.15,-135.88 7.15,-35.76 0,-50.06 7.15,-85.82 0,-21.45 14.3,-42.91 -14.3,-64.36 -28.61,-28.61 14.3,-50.06 0,-143.03 -21.45,-42.91 7.15,-28.61 -7.15,-85.82l-150.18 0c14.3,200.24 14.3,85.82 28.61,164.48l-35.76 14.3c-7.15,14.3 7.15,14.3 -14.3,14.3l0 -42.91c0,7.15 0,21.45 0,28.61 -7.15,35.76 0,7.15 -14.3,28.61 -42.91,0 -7.15,0 -21.45,-14.3 0,-7.15 14.3,-7.15 0,-7.15 -14.3,-14.3 -14.3,14.3 -14.3,-14.3l-14.3 -7.15c-42.91,7.15 -14.3,0 -21.45,-7.15 0,0 0,0 0,0 0,-7.15 -7.15,-7.15 -7.15,-7.15l-7.15 -7.15c0,0 0,-7.15 0,-7.15 -7.15,0 -14.3,-7.15 -21.45,-7.15 0,-185.94 0,-85.82 -21.45,-128.73l-7.15 0c-14.3,14.3 -7.15,14.3 -21.45,14.3 -28.61,-7.15 -14.3,7.15 -21.45,-14.3l-379.03 -14.3 -50.06 -7.15c-7.15,14.3 0,14.3 -21.45,21.46 -21.45,-14.3 -7.15,-14.3 -21.45,-28.61 -28.61,0 -114.42,7.15 -128.73,-14.3l-178.79 0c-64.36,0 -157.33,0 -228.85,-7.15 -35.76,0 -64.36,7.15 -107.27,0 -50.06,0 -85.82,7.15 -100.12,-7.15 -21.45,-21.45 -421.94,7.15 -507.76,0 -92.97,0 -114.42,7.15 -185.94,-7.15 -35.76,-14.3 -550.67,7.15 -636.48,7.15 -42.91,0 -35.76,-7.15 -57.21,-7.15 -107.27,-7.15 -522.06,0 -636.48,0 -35.76,7.15 -85.82,14.3 -121.58,7.15 -64.36,0 0,-7.15 -128.73,-7.15l-243.15 0c-107.27,0 -507.76,21.45 -586.42,14.3 -35.76,-7.15 -14.3,-14.3 -42.91,-14.3 -21.45,-7.15 -92.97,0 -128.73,0 -164.49,7.15 -336.12,28.61 -507.76,35.76 -85.82,0 -185.94,-7.15 -271.76,0 -14.3,28.61 -21.45,78.67 -21.45,114.42 -7.15,85.82 -28.61,28.61 -21.45,78.67 7.15,21.45 0,7.15 14.3,21.45zm92.97 1873.69c14.3,7.15 7.15,21.45 21.45,78.67l-28.61 14.3c7.15,64.36 21.45,42.91 0,57.21 0,7.15 0,14.3 0,21.45 7.15,14.3 7.15,7.15 14.3,14.3 0,-7.15 7.15,-14.3 7.15,-21.45l7.15 -7.15c7.15,-28.61 7.15,-35.76 -14.3,-57.21 28.61,-21.45 21.45,-35.76 21.45,-78.67 14.3,21.45 7.15,21.45 21.45,28.61 7.15,-14.3 7.15,-21.45 0,-35.76l-28.61 -28.61c0,-7.15 0,7.15 7.15,-7.15 7.15,-28.61 0,-85.82 0,-143.03 -57.21,57.21 -28.61,28.61 -35.76,71.52 -7.15,28.61 -14.3,7.15 0,42.91 7.15,28.61 14.3,7.15 7.15,50.06zm-7.15 -1323.03c0,0 -7.15,0 -7.15,7.15 0,0 -7.15,7.15 -7.15,14.3 -7.15,14.3 0,0 0,21.45 7.15,14.3 7.15,0 7.15,21.45 0,7.15 0,14.3 0,14.3 21.45,7.15 21.45,0 21.45,21.46l0 42.91c-7.15,21.45 0,21.45 -21.45,14.3l-7.15 42.91c0,0 7.15,0 7.15,0 0,7.15 0,7.15 0,7.15 7.15,7.15 7.15,14.3 7.15,14.3l0 -28.61c28.61,-21.45 28.61,7.15 35.76,-35.76 0,50.06 28.61,21.45 14.3,78.67 35.76,-14.3 -7.15,35.76 7.15,-7.15 14.3,-35.76 0,-78.67 -14.3,-107.27 42.91,0 0,0 14.3,-21.45 -7.15,0 -14.3,7.15 -21.45,-14.3 0,-21.45 0,-28.61 14.3,-35.76 0,0 0,-7.15 0,-7.15 0,0 7.15,-14.3 -7.15,-21.45 -28.61,-14.3 -7.15,0 -14.3,7.15 0,0 0,0 0,0 0,-50.06 -7.15,-21.45 -14.3,-35.76l0 35.76c0,-7.15 -7.15,0 -7.15,0 -7.15,-7.15 -14.3,21.45 -7.15,-28.61zm5320.71 -579.27c7.15,-50.06 -14.3,-100.12 0,-121.58 42.91,0 0,-14.3 50.06,57.21 0,-57.21 0,-7.15 14.3,-28.61l14.3 7.15c-7.15,-7.15 -7.15,-14.3 -7.15,-7.15 0,0 -7.15,-7.15 -14.3,-7.15 7.15,-14.3 7.15,-28.61 7.15,-57.21l-121.58 0c21.45,42.91 21.45,-57.21 21.45,128.73 7.15,0 14.3,7.15 21.45,7.15 0,0 0,7.15 0,7.15l7.15 7.15c0,0 7.15,0 7.15,7.15 0,0 0,0 0,0zm64.36 2503.02c-14.3,-14.3 -7.15,-21.46 -21.45,-78.67l21.45 -14.3c0,0 0,0 7.15,0 -7.15,-21.45 -14.3,-28.61 -7.15,-50.06 7.15,-35.76 -28.61,14.3 7.15,-7.15l-14.3 -35.76c0,7.15 -7.15,14.3 -7.15,21.45l-7.15 7.15c-7.15,28.61 -7.15,35.76 14.3,57.21 -28.61,21.45 -21.45,35.76 -21.45,78.67l-7.15 -14.3c-7.15,-14.3 0,-7.15 -14.3,-14.3 -14.3,35.76 0,35.76 28.61,64.36 0,0 -21.45,28.61 -7.15,85.82 7.15,21.46 -7.15,0 7.15,14.3 50.06,0 14.3,7.15 28.61,-14.3 28.61,-35.76 -14.3,-50.06 -7.15,-100.12zm-5470.89 -1258.66l0 7.15c-7.15,28.61 -7.15,28.61 0,57.21 0,28.61 0,50.06 0,78.67 0,0 7.15,-7.15 7.15,21.46 7.15,14.3 0,21.45 0,35.76l21.45 -14.3 0 14.3 0 -28.61c-7.15,-14.3 7.15,7.15 7.15,-71.52 0,-35.76 -7.15,-78.67 -14.3,-114.42 -21.45,28.61 0,21.45 -14.3,57.21l-7.15 -42.91zm5406.53 -1244.36c7.15,7.15 -21.46,14.3 21.45,7.15 0,0 7.15,-7.15 7.15,-7.15 14.3,-28.61 21.45,-57.21 50.06,-71.52 -21.45,-7.15 -21.45,21.46 -14.3,-21.45 -14.3,21.45 -14.3,-28.61 -14.3,28.61 -50.06,-71.51 -7.15,-57.21 -50.06,-57.21 -14.3,21.45 7.15,71.52 0,121.58zm-5528.1 2181.2c0,-7.15 14.3,0 7.15,-57.21 0,-7.15 0,-21.45 0,-28.61 0,-42.91 0,-21.45 7.15,-28.61 0,-42.91 0,-85.82 0,-128.73 0,-28.61 0,-35.76 0,-64.36 0,-28.61 7.15,-50.06 -21.45,-50.06l7.15 357.57zm5606.77 -2267.02l0 14.3c-28.61,14.3 -35.76,42.91 -50.06,71.52 0,0 -7.15,7.15 -7.15,7.15l14.3 7.15c0,28.61 0,0 14.3,14.3 -7.15,-28.61 -7.15,-42.91 14.3,-64.36 7.15,14.3 7.15,14.3 7.15,35.76 0,42.91 0,28.61 -21.45,35.76 14.3,14.3 -21.45,14.3 21.45,14.3 14.3,-21.45 7.15,7.15 14.3,-28.61 0,-7.15 0,-21.45 0,-28.61l0 -143.03c0,0 0,-7.15 0,-7.15 0,7.15 -21.45,0 -21.45,0 0,28.61 0,42.91 -7.15,57.21 7.15,0 14.3,7.15 14.3,7.15 0,-7.15 0,0 7.15,7.15zm185.94 2424.35c0,42.91 0,221.7 7.15,243.15 7.15,-7.15 7.15,0 7.15,-14.3 0,0 0,-21.45 0,-21.45l0 -321.82c0,7.15 -14.3,0 -7.15,57.21 0,7.15 0,21.45 0,28.61 0,42.91 0,21.45 -7.15,28.61zm-200.24 164.49c7.15,-7.15 42.91,-114.42 7.15,-150.18 -35.76,21.45 0,-28.61 -7.15,7.15 -7.15,21.46 0,28.61 7.15,50.06 -7.15,0 -7.15,0 -7.15,0l-21.45 14.3c14.3,57.21 7.15,64.36 21.45,78.67zm-5385.07 -450.54c21.45,-14.3 7.15,7.15 0,-57.21l28.61 -14.3c-14.3,-57.21 -7.15,-71.51 -21.45,-78.67 -7.15,42.91 -21.45,35.76 -21.45,71.51 0,35.76 0,64.36 14.3,78.67zm0 -1251.51c7.15,35.76 0,7.15 14.3,21.45l35.76 -7.15c14.3,-57.21 -14.3,-28.61 -14.3,-78.67 -7.15,42.91 -7.15,14.3 -35.76,35.76l0 28.61zm-21.45 915.39c7.15,7.15 14.3,-7.15 7.15,21.45 0,35.76 0,14.3 -7.15,21.45 7.15,21.46 -14.3,0 7.15,21.46l14.3 -42.91c35.76,14.3 0,7.15 14.3,-7.15 -14.3,-14.3 -7.15,0 -14.3,-21.45 0,0 0,-21.45 0,-28.61l-14.3 7.15c0,21.45 0,7.15 -7.15,28.61zm-78.67 -543.51l35.76 0c0,-7.15 0,-14.3 0,-21.46 -14.3,-42.91 -7.15,-14.3 -21.45,-28.61l0 28.61 -14.3 21.46zm14.3 -321.82c0,0 7.15,0 7.15,-21.45 0,-14.3 0,-14.3 0,-28.61 -7.15,-21.46 -7.15,-35.76 -7.15,-57.21 0,7.15 -7.15,-7.15 -7.15,21.45 0,14.3 0,14.3 0,28.61 7.15,21.46 7.15,35.76 7.15,57.21zm5656.83 -386.18c14.3,-7.15 7.15,0 14.3,-21.45 0,-7.15 0,-21.46 0,-28.61 7.15,-21.45 7.15,-35.76 14.3,-57.21 -14.3,14.3 -7.15,-14.3 -14.3,21.45 0,7.15 0,14.3 -7.15,21.45 0,21.45 0,42.91 -7.15,64.36zm-5656.83 1065.57c21.45,-14.3 7.15,-7.15 14.3,0l14.3 28.61c14.3,-28.61 0,-35.76 -14.3,-57.21 0,0 0,0 0,7.15 -7.15,0 -7.15,0 -7.15,0 -7.15,14.3 0,0 -7.15,21.46zm5656.83 514.91c7.15,-7.15 14.3,7.15 7.15,-50.06 0,-28.61 0,-28.61 -7.15,-50.06 -35.76,0 0,-7.15 -14.3,7.15 28.61,-7.15 7.15,-7.15 14.3,7.15l0 85.82zm-5535.25 -371.88l14.3 -14.3c7.15,-7.15 7.15,28.61 7.15,-14.3 0,-21.45 0,-7.15 -7.15,-14.3 -14.3,7.15 -21.45,-14.3 -14.3,42.91zm-228.85 886.78c0,0 14.3,-7.15 14.3,-7.15l0 -14.3 14.3 0 -28.61 -35.76 0 57.21zm5771.25 -1151.39l21.45 7.15 0 -50.06c-7.15,7.15 0,-7.15 -14.3,14.3 -7.15,14.3 -7.15,14.3 -7.15,28.61zm-5685.43 -793.82c21.45,0 35.76,7.15 57.21,-7.15 0,-28.61 7.15,-14.3 -21.45,-28.61 21.45,28.61 7.15,0 14.3,28.61 -7.15,0 -21.45,-7.15 -28.61,0 -35.76,0 -14.3,-7.15 -21.45,7.15zm0 464.85c35.76,0 14.3,0 21.45,-7.15 0,-7.15 7.15,-14.3 0,-21.45 -7.15,-35.76 0,-14.3 -7.15,-21.46l-14.3 50.06c0,0 0,0 0,0zm5678.28 772.36l0 14.3 -14.3 0 21.45 21.45c0,0 0,7.15 0,7.15 7.15,0 7.15,0 7.15,7.15l0 -57.21c0,0 -14.3,7.15 -14.3,7.15zm-5599.61 -171.63l14.3 7.15 14.3 -7.15 0 -14.3 14.3 14.3c0,-21.45 0,-14.3 -21.45,-21.45l-21.45 21.45zm-78.67 128.73l21.45 0 0 -64.36c0,0 -7.15,-7.15 -7.15,21.45 0,7.15 0,21.46 0,28.61l-14.3 14.3zm5649.67 -135.88c-28.61,0 -7.15,7.15 -21.45,-7.15l7.15 -21.46c-14.3,14.3 -7.15,-7.15 -14.3,14.3 0,21.45 0,14.3 7.15,28.61 35.76,0 7.15,0 21.45,-14.3zm0 -1001.21c-28.61,0 -7.15,7.15 -21.45,-7.15l7.15 -21.45c-14.3,14.3 -7.15,-7.15 -14.3,14.3 0,21.46 0,14.3 7.15,28.61 35.76,0 7.15,0 21.45,-14.3zm-5706.89 1780.72c-21.45,0 0,14.3 -14.3,-7.15l0 -85.82c-14.3,7.15 -7.15,-7.15 -7.15,21.46l7.15 78.67c35.76,0 0,7.15 14.3,-7.15zm143.03 -1773.57l7.15 7.15 14.3 -7.15 0 -14.3 14.3 14.3c0,-21.46 0,-14.3 -21.45,-21.46l-14.3 21.46zm5277.8 -836.72l-42.91 0c7.15,21.45 -7.15,7.15 21.45,14.3 14.3,0 7.15,0 21.45,-14.3zm257.45 2216.96c7.15,28.61 0,7.15 -7.15,14.3l7.15 -14.3zm0 0l-14.3 -7.15c-7.15,35.76 -7.15,21.45 14.3,28.61 14.3,-28.61 0,-14.3 0,-21.45zm28.61 143.03c14.3,-14.3 7.15,0 14.3,-14.3 0,-7.15 0,-21.45 0,-28.61l14.3 0c-7.15,-14.3 14.3,-14.3 -14.3,-7.15l-14.3 50.06zm-5721.19 42.91c7.15,14.3 -14.3,14.3 14.3,7.15l14.3 -50.06c-14.3,14.3 -7.15,0 -14.3,21.45 0,0 0,21.45 0,21.45l-14.3 0zm5613.92 42.91c0,0 21.45,0 0,-28.61 -7.15,7.15 -7.15,-14.3 -7.15,14.3 0,14.3 7.15,14.3 7.15,14.3zm-5363.62 -1659.15c7.15,-7.15 7.15,14.3 7.15,-14.3 0,-14.3 0,-7.15 -7.15,-14.3 0,0 -21.45,7.15 0,28.61zm-150.18 -336.12c14.3,-21.45 14.3,-14.3 -7.15,-28.61 -7.15,21.45 -7.15,14.3 7.15,28.61zm5413.68 114.42c7.15,-7.15 7.15,14.3 7.15,-14.3 0,-14.3 0,-7.15 -7.15,-14.3 -7.15,7.15 -7.15,-7.15 -7.15,14.3 0,21.45 0,7.15 7.15,14.3zm-5377.92 1737.81c7.15,-7.15 7.15,14.3 7.15,-14.3 0,-14.3 -7.15,-14.3 -7.15,-14.3 -7.15,14.3 -21.45,7.15 0,28.61zm5599.62 -1852.24c-14.3,-14.3 7.15,-7.15 -21.46,-7.15 7.15,28.61 -7.15,14.3 14.3,21.45l7.15 -14.3zm-5613.92 1323.03c14.3,-21.45 14.3,-14.3 0,-28.61 -14.3,21.45 -14.3,14.3 0,28.61zm7.15 85.82l-7.15 0c-7.15,7.15 -7.15,7.15 -7.15,14.3 0,21.45 0,14.3 7.15,21.45l7.15 -35.76zm5470.89 -1680.6l-14.3 -21.45c0,0 0,-7.15 0,-7.15l0 42.91c21.45,0 7.15,0 14.3,-14.3zm85.82 2402.9c7.15,0 7.15,7.15 21.45,0 28.61,-14.3 0,0 14.3,-14.3 0,0 -14.3,0 -14.3,0l-21.45 14.3c0,0 0,0 0,0zm-5613.92 -1680.6c14.3,-28.61 0,-14.3 -7.15,-21.45 -7.15,14.3 -21.45,14.3 7.15,21.45zm0 1001.21c14.3,-28.61 0,-14.3 -7.15,-21.45 -7.15,14.3 -21.45,14.3 7.15,21.45zm5506.64 -1816.48l0 -14.3 -14.3 -7.15c-7.15,42.91 -7.15,14.3 14.3,21.45zm35.76 2688.96c14.3,-14.3 21.45,21.46 14.3,-28.61 -14.3,14.3 -7.15,0 -14.3,28.61zm-5492.34 -800.97c7.15,-7.15 7.15,14.3 7.15,-14.3 7.15,-14.3 0,-7.15 0,-21.45 -7.15,7.15 -7.15,0 -7.15,14.3 0,14.3 0,7.15 0,21.45zm5592.46 679.39c-7.15,-28.61 0,-7.15 -21.45,-21.45 14.3,28.61 -7.15,21.45 21.45,21.45zm7.15 -400.48l0 -28.61 14.3 7.15 -14.3 -14.3c-7.15,14.3 -14.3,0 -7.15,21.45 7.15,14.3 0,7.15 7.15,14.3zm-5706.89 236l14.3 14.3c7.15,-14.3 14.3,0 7.15,-21.45 -7.15,-14.3 0,-7.15 -7.15,-14.3l0 28.61 -14.3 -7.15zm14.3 -464.85c21.45,-28.61 7.15,-14.3 0,-21.45 0,7.15 -21.46,-7.15 0,21.45zm5621.07 -1802.18c-7.15,-28.61 0,-14.3 -21.45,-21.45 7.15,21.45 7.15,14.3 21.45,21.45zm-5671.13 2553.08l-7.15 -28.61c-7.15,7.15 -7.15,-14.3 -7.15,14.3 7.15,28.61 0,0 14.3,14.3zm121.58 -2145.44l14.3 -21.45 -21.45 7.15c0,35.76 0,7.15 7.15,14.3zm35.76 1616.24c0,0 21.46,7.15 0,-21.45 0,0 -14.3,7.15 0,21.45zm5585.31 -2188.36l14.3 -7.15 -7.15 -14.3c-7.15,7.15 -14.3,-7.15 -7.15,21.45zm-5706.89 2681.81l-14.3 0 0 -14.3c-7.15,14.3 -7.15,14.3 0,28.61 28.61,-14.3 0,0 14.3,-14.3zm5735.49 -743.75c7.15,-14.3 7.15,-14.3 0,-28.61 -28.61,14.3 0,0 -14.3,14.3l14.3 0 0 14.3zm-5721.19 157.33l35.76 -14.3c-7.15,0 -7.15,-7.15 -21.45,0 -28.61,14.3 0,0 -14.3,14.3zm5542.4 -1008.36c14.3,-14.3 7.15,-14.3 0,-21.45 0,7.15 -21.45,0 0,21.45zm-5513.8 944c-14.3,-28.61 0,-14.3 -21.45,-21.45 7.15,21.45 -7.15,7.15 21.45,21.45zm200.24 -1115.63l0 -28.61c-7.15,7.15 -14.3,-21.45 -7.15,14.3 0,14.3 0,7.15 7.15,14.3zm5406.53 1802.17l7.15 -14.3c0,0 0,-7.15 7.15,-7.15 0,0 0,0 0,0l-21.45 7.15c-7.15,28.61 0,7.15 7.15,14.3zm-50.06 -278.91c0,0 14.3,0 0,-21.45 -7.15,14.3 -7.15,-21.45 -7.15,7.15 7.15,21.45 0,7.15 7.15,14.3zm135.88 -1501.81l7.15 -7.15c0,-14.3 0,-7.15 -7.15,-21.45l-14.3 14.3 14.3 -7.15 0 21.45zm-28.61 1723.51l0 -21.45c-7.15,7.15 -28.61,7.15 0,21.45zm0 -2660.35c-7.15,-28.61 0,-14.3 7.15,-21.45 -7.15,0 14.3,-14.3 -14.3,0 0,35.76 0,14.3 7.15,21.45zm-150.18 2088.23c14.3,-14.3 7.15,7.15 7.15,-21.45 -14.3,14.3 -7.15,-7.15 -7.15,21.45zm-5399.37 450.54c14.3,-14.3 7.15,14.3 7.15,-21.45 -14.3,14.3 -7.15,-7.15 -7.15,21.45zm-50.06 -736.6l7.15 0c7.15,-28.61 0,-14.3 0,-21.45l-7.15 21.45zm-21.45 -164.48l7.15 -7.15c-7.15,-7.15 7.15,-14.3 -14.3,0l7.15 7.15zm5635.37 -1244.36l-7.15 -14.3c-28.61,0 0,0 -14.3,7.15 28.61,0 7.15,-7.15 21.46,7.15zm-42.91 1766.42l-7.15 14.3c7.15,-7.15 14.3,14.3 7.15,-14.3zm-128.73 -1015.51l0 -21.46c-7.15,14.3 -14.3,-14.3 0,21.46zm-5499.49 421.94c0,-7.15 0,-7.15 0,-7.15l-7.15 -7.15c7.15,35.76 -14.3,0 7.15,14.3z"/>
 </g>
</svg>
