<?xml version="1.0" encoding="UTF-8"?>
<!DOCTYPE svg PUBLIC "-//W3C//DTD SVG 1.1//EN" "http://www.w3.org/Graphics/SVG/1.1/DTD/svg11.dtd">
<!-- Creator: CorelDRAW 2019 (64-Bit) -->
<svg xmlns="http://www.w3.org/2000/svg" xml:space="preserve" width="287.103mm" height="38.4449mm" version="1.1" style="shape-rendering:geometricPrecision; text-rendering:geometricPrecision; image-rendering:optimizeQuality; fill-rule:evenodd; clip-rule:evenodd"
viewBox="0 0 5824.21 779.9"
 xmlns:xlink="http://www.w3.org/1999/xlink"
 xmlns:xodm="http://www.corel.com/coreldraw/odm/2003">
 <defs>
  <style type="text/css">
   <![CDATA[
    .fil0 {fill:black}
   ]]>
  </style>
 </defs>
 <g id="Слой_x0020_1">
  <metadata id="CorelCorpID_0Corel-Layer"/>
  <path class="fil0" d="M5774.13 672.57c-21.46,-21.46 -14.31,-21.46 7.16,-28.62 7.15,21.46 7.15,14.31 -7.16,28.62zm-64.39 -78.71c7.15,-7.15 -14.31,-7.15 14.31,-7.15 14.31,21.47 14.31,21.47 0,42.93 -7.15,14.31 28.62,21.46 -14.31,7.15 -7.15,-7.15 -7.15,0 -7.15,-21.46 0,-28.62 7.15,-14.31 7.15,-21.47zm-21.46 -93.01c-7.15,-7.15 -21.46,14.31 0,-21.47 7.15,7.16 28.62,-21.46 0,21.47zm78.7 -264.74c7.15,-7.15 -14.31,-7.15 21.47,-7.15 0,35.78 7.15,14.31 -14.31,28.62 -7.15,-7.15 -7.15,7.15 -7.15,-21.47zm7.15 -50.08c-14.31,-14.31 -14.31,14.31 -14.31,-21.46 -7.15,-14.31 0,-14.31 7.15,-21.46 28.62,0 7.15,-7.15 14.31,7.15l0 7.15c7.15,7.15 0,0 0,14.31 0,7.15 14.31,7.15 0,7.15l-7.16 7.15zm-207.5 -42.93c0,35.77 7.15,0 -7.15,14.31 -14.31,-21.46 -14.31,-14.31 0,-35.77 0,7.15 14.31,0 7.15,21.46zm-5545.17 236.12l28.62 -14.31c0,21.46 7.15,7.15 0,28.62 -7.15,14.31 0,0 -14.31,14.31 -14.31,21.46 -28.62,21.46 -35.77,50.08l21.46 0c14.31,-14.31 -14.31,-14.31 21.46,-7.15l0 21.46c0,7.15 0,28.62 0,28.62 -7.15,14.31 7.15,7.15 -7.15,14.31 -21.46,7.15 -14.31,7.15 -14.31,28.62 0,21.46 0,14.31 14.31,28.62 14.31,14.31 7.15,35.78 7.15,64.4 7.15,21.46 7.15,42.93 14.31,64.39l0 28.62 343.44 7.15 93.02 0c35.77,7.15 28.62,14.31 35.77,14.31 100.17,-7.15 207.5,14.31 314.82,14.31 35.77,0 135.95,7.15 157.41,0 42.93,-14.31 21.46,-7.15 78.71,-7.15 214.65,0 565.25,21.46 744.13,14.31l35.77 -7.15c21.46,0 85.86,7.15 121.64,0 28.62,-21.46 93.02,7.15 128.79,-7.15l286.2 14.31 393.53 0c21.46,-7.15 35.77,-14.31 71.55,-14.31 100.17,7.15 586.71,21.46 629.64,14.31 50.08,-14.31 100.17,-14.31 157.41,-14.31l536.63 14.31c21.47,-7.15 0,-14.31 71.55,-14.31 121.64,0 572.4,-21.46 622.49,-14.31 7.15,-14.31 57.24,-14.31 78.71,-14.31 0,0 0,-7.16 0,0 7.15,14.31 -7.15,-14.31 21.46,-28.62 14.31,7.15 7.15,0 14.31,7.15 0,0 0,7.15 0,7.15l93.02 0 343.44 -14.31c14.31,-14.31 0,-7.15 28.62,-14.31 28.62,7.15 7.15,-7.15 21.46,14.31l7.15 0c7.15,-14.31 0,0 7.15,-14.31 7.15,-7.15 7.15,14.31 7.15,-7.15 0,0 7.15,0 7.15,0 0,-64.39 -7.15,-100.17 14.31,-114.48 35.78,-14.31 -7.15,-7.15 35.78,-28.62l0 0 21.46 0c7.15,-42.93 0,-7.15 14.31,-21.46l7.15 0c14.31,-14.31 -14.31,-7.15 14.31,-14.31 14.31,21.46 14.31,64.39 0,78.7l0 7.15 0 14.31 0 7.16 7.15 0 0 -107.33c50.09,0 14.31,0 28.62,14.31 14.31,21.46 7.16,7.15 35.78,21.46l-21.46 57.24 -7.15 107.33 143.1 0c14.31,-28.62 0,-35.77 7.15,-71.55 7.15,-64.4 7.15,-393.53 7.15,-457.92 0,-21.46 -7.15,-71.55 -7.15,-85.86 7.15,-35.77 14.31,14.31 14.31,-85.86l-5802.75 0 0 71.55c28.62,7.15 42.93,14.31 50.09,42.93 7.15,35.78 -7.15,150.26 -14.31,186.03 -7.15,28.62 -28.62,35.77 -42.93,57.24l7.15 21.47zm5502.23 186.03l-7.15 128.79c42.93,7.15 64.4,-7.15 93.02,0l-7.15 -57.24c50.08,21.46 14.31,0 28.62,-7.15l-21.46 0 -7.15 -21.46c-14.31,7.15 -7.15,7.15 -21.46,28.62 -28.62,35.77 -7.15,14.31 -35.77,28.62l14.31 -128.79c-42.93,21.46 0,14.31 -35.78,28.62zm100.17 42.93l0 14.31 7.15 7.15c-14.31,7.15 21.46,28.62 -28.62,7.15l7.15 57.24c-28.62,-7.15 -50.08,7.15 -93.02,0l7.15 -128.79c-21.46,14.31 -14.31,50.09 -14.31,114.48 0,0 -7.15,0 -7.15,0 0,21.46 0,0 -7.15,7.15 -7.15,14.31 0,0 -7.15,14.31l150.26 0c-7.15,-35.77 -7.15,-57.24 -7.15,-93.01l7.15 -71.55c7.15,-28.62 -7.15,-7.15 14.31,-21.46 -14.31,-14.31 21.47,-14.31 -28.62,-14.31l0 107.33zm-21.46 0l14.31 0 0 -7.16c-21.46,-14.31 -21.46,-7.15 -28.62,-35.77 -21.46,-28.62 0,0 -28.62,-28.62l0 0 -14.31 128.79c28.62,-14.31 7.15,7.15 35.77,-28.62 14.31,-21.46 7.15,-21.46 21.46,-28.62zm-3205.46 164.57l-286.2 -14.31c14.31,14.31 42.93,14.31 64.4,14.31l157.41 7.15c28.62,0 50.09,0 64.4,-7.15zm-1867.47 -21.46c-7.15,0 0,-7.15 -35.77,-14.31l-93.02 0c0,0 7.15,0 7.15,7.15 7.15,7.15 93.02,7.15 121.64,7.15zm5030 -214.65c28.62,28.62 7.15,0 28.62,28.62 7.15,28.62 7.15,21.46 28.62,35.77l0 -14.31 -14.31 0 0 -14.31 -7.15 -57.24c-14.31,14.31 -7.15,-21.46 -14.31,21.46l-21.46 0zm-3577.53 228.96c-35.77,7.15 -100.17,0 -121.64,0l-35.77 7.15 143.1 7.15 14.31 -14.31zm-1924.71 -64.4c-7.15,-21.46 -7.15,-42.93 -14.31,-64.39 0,-28.62 7.15,-50.09 -7.15,-64.4 0,21.46 0,42.93 0,71.55 7.15,21.46 0,42.93 21.46,57.24zm5559.48 -121.64c14.31,-14.31 14.31,-57.24 0,-78.7 -28.62,7.15 0,0 -14.31,14.31 21.46,-7.15 7.15,-7.15 14.31,0l0 64.39zm-5580.94 -64.39c14.31,-7.15 0,0 7.15,-14.31 0,0 0,-21.47 0,-28.62l0 -21.46 -21.46 7.15 -21.46 0 35.77 14.31 0 42.93zm-14.31 -135.95c0,0 0,0 0,0 7.15,28.62 0,-7.15 21.46,7.15l-7.15 21.46c14.31,-14.31 7.15,0 14.31,-14.31 7.15,-21.46 0,-7.15 0,-28.62l-28.62 14.31zm5409.22 321.98l50.08 0c-14.31,-21.46 7.15,-7.15 -21.46,-14.31 -28.62,7.15 -14.31,0 -28.62,14.31zm128.79 -543.78c14.31,-14.31 7.15,21.46 7.15,-14.31 7.15,-21.46 -7.15,-14.31 -7.15,-21.46 -14.31,21.46 -14.31,14.31 0,35.77zm164.57 472.23c14.31,-21.46 14.31,-21.46 0,-42.93 -28.62,0 -7.15,0 -14.31,7.15 21.46,0 7.15,0 14.31,7.15l0 28.62zm0 0c-28.62,7.15 -7.15,7.15 -14.31,-7.15l0 -28.62c0,7.15 -7.15,-7.15 -7.15,21.47 0,21.46 0,14.31 7.15,21.46 42.93,14.31 7.15,7.15 14.31,-7.15zm-5688.27 -357.75c7.15,-7.15 14.31,14.31 7.15,-14.31 0,-21.47 0,-7.15 -7.15,-14.31 0,7.15 -7.15,0 -7.15,14.31 0,14.31 0,7.15 7.15,14.31zm5738.35 -85.86l-14.31 -28.62c21.47,-14.31 0,-7.15 21.47,-7.15 -7.16,-14.31 14.31,-7.15 -14.31,-7.15 -7.15,7.15 -14.31,7.15 -7.15,21.46 0,35.77 0,7.15 14.31,21.46zm0 71.55l14.31 -21.47 -21.47 0c0,28.62 0,14.31 7.15,21.47zm-85.86 243.27c28.62,-42.93 7.15,-14.31 0,-21.47 -21.46,35.78 -7.15,14.31 0,21.47zm-78.71 128.79l0 -14.31c0,0 14.31,7.15 14.31,7.15l0 -14.31 -7.15 0 -14.31 0 7.15 21.46zm0 0l21.46 0 -7.15 -7.15c0,0 -14.31,-7.15 -14.31,-7.15l0 14.31zm7.15 -42.93l0 -7.15 -14.31 -7.15 0 14.31 14.31 0zm-5573.79 -114.48l0 -21.46c-35.77,-7.15 -7.15,-7.15 -21.46,7.15l21.46 -7.15 0 21.46zm5738.35 -293.36c14.31,0 0,0 0,-7.15 0,-14.31 7.15,-7.15 0,-14.31l0 21.46z"/>
 </g>
</svg>
